<svg width="25" height="28" viewBox="0 0 25 28" fill="none" xmlns="http://www.w3.org/2000/svg">
<path d="M17.7791 18.7234V0.165576C17.7791 0.104474 17.8554 0.0681539 17.9056 0.10293C19.0991 0.929036 24.5876 1.97558 24.5876 8.51064V27.0685C24.5876 27.1296 24.5113 27.1659 24.4611 27.1311C23.2676 26.305 17.7791 25.2585 17.7791 18.7234Z" fill="#3157B7"/>
<path d="M9.26845 15.3191V0.165576C9.26845 0.104474 9.34475 0.0681539 9.39499 0.10293C10.5884 0.929036 16.077 1.97558 16.077 8.51064V23.6642C16.077 23.7253 16.0007 23.7616 15.9504 23.7269C14.757 22.9008 9.26845 21.8542 9.26845 15.3191Z" fill="#3157B7"/>
<path d="M0.757812 11.9149V0.165576C0.757812 0.104474 0.834111 0.0681539 0.884351 0.10293C2.0778 0.929036 7.56632 1.97558 7.56632 8.51064V20.26C7.56632 20.3211 7.49002 20.3574 7.43979 20.3226C6.24633 19.4965 0.757812 18.45 0.757812 11.9149Z" fill="#3157B7"/>
</svg>
